REM DIRINDEX 1\2\3,1\2\4,1\2\5,1\2\6
REM DIRNAME folder01,folder02,folder03,folder04,folder05,folder06
TITLE ""
FILE "078 078.mp3" MP3
  TRACK 01 AUDIO
    TITLE "0:"
    INDEX 01 00:00:00
  TRACK 02 AUDIO
    TITLE "3:cjc157_2924"
    INDEX 01 00:00:11
  TRACK 03 AUDIO
    TITLE "0:"
    INDEX 01 00:01:17
  TRACK 04 AUDIO
    TITLE "4:cjc157_2925"
    INDEX 01 00:01:64
  TRACK 05 AUDIO
    TITLE "0:"
    INDEX 01 00:03:04
  TRACK 06 AUDIO
    TITLE "5:cjc157_2926"
    INDEX 01 00:03:49
  TRACK 07 AUDIO
    TITLE "0:"
    INDEX 01 00:05:36
  TRACK 08 AUDIO
    TITLE "5:cjc157_2927"
    INDEX 01 00:06:06
  TRACK 09 AUDIO
    TITLE "0:"
    INDEX 01 00:08:24
  TRACK 10 AUDIO
    TITLE "3:cjc157_2928"
    INDEX 01 00:08:72
  TRACK 11 AUDIO
    TITLE "0:"
    INDEX 01 00:10:10
  TRACK 12 AUDIO
    TITLE "4:cjc157_2929"
    INDEX 01 00:10:53
  TRACK 13 AUDIO
    TITLE "0:"
    INDEX 01 00:12:07
  TRACK 14 AUDIO
    TITLE "5:cjc157_2930"
    INDEX 01 00:12:54
  TRACK 15 AUDIO
    TITLE "0:"
    INDEX 01 00:14:33
  TRACK 16 AUDIO
    TITLE "5:cjc157_2931"
    INDEX 01 00:15:05
  TRACK 17 AUDIO
    TITLE "0:"
    INDEX 01 00:17:59
  TRACK 18 AUDIO
    TITLE "3:cjc157_2932"
    INDEX 01 00:18:31
  TRACK 19 AUDIO
    TITLE "0:"
    INDEX 01 00:19:34
  TRACK 20 AUDIO
    TITLE "4:cjc157_2933"
    INDEX 01 00:20:04
  TRACK 21 AUDIO
    TITLE "0:"
    INDEX 01 00:21:21
  TRACK 22 AUDIO
    TITLE "5:cjc157_2934"
    INDEX 01 00:21:68
  TRACK 23 AUDIO
    TITLE "0:"
    INDEX 01 00:24:39
  TRACK 24 AUDIO
    TITLE "5:cjc157_2935"
    INDEX 01 00:25:09
  TRACK 25 AUDIO
    TITLE "0:"
    INDEX 01 00:27:36
  TRACK 26 AUDIO
    TITLE "3:cjc157_2936"
    INDEX 01 00:28:12
  TRACK 27 AUDIO
    TITLE "0:"
    INDEX 01 00:29:27
  TRACK 28 AUDIO
    TITLE "4:cjc157_2937"
    INDEX 01 00:29:74
  TRACK 29 AUDIO
    TITLE "0:"
    INDEX 01 00:31:08
  TRACK 30 AUDIO
    TITLE "5:cjc157_2938"
    INDEX 01 00:31:53
  TRACK 31 AUDIO
    TITLE "0:"
    INDEX 01 00:33:54
  TRACK 32 AUDIO
    TITLE "5:cjc157_2939"
    INDEX 01 00:34:22
  TRACK 33 AUDIO
    TITLE "0:"
    INDEX 01 00:36:35
  TRACK 34 AUDIO
    TITLE "5:cjc157_2940"
    INDEX 01 00:37:05
  TRACK 35 AUDIO
    TITLE "0:"
    INDEX 01 00:39:31
  TRACK 36 AUDIO
    TITLE "3:cjc157_2941"
    INDEX 01 00:40:03
  TRACK 37 AUDIO
    TITLE "0:"
    INDEX 01 00:41:16
  TRACK 38 AUDIO
    TITLE "4:cjc157_2942"
    INDEX 01 00:41:63
  TRACK 39 AUDIO
    TITLE "0:"
    INDEX 01 00:43:05
  TRACK 40 AUDIO
    TITLE "5:cjc157_2943"
    INDEX 01 00:43:54
  TRACK 41 AUDIO
    TITLE "0:"
    INDEX 01 00:45:49
  TRACK 42 AUDIO
    TITLE "5:cjc157_2944"
    INDEX 01 00:46:17
  TRACK 43 AUDIO
    TITLE "0:"
    INDEX 01 00:48:30
  TRACK 44 AUDIO
    TITLE "5:cjc157_2945"
    INDEX 01 00:48:73
  TRACK 45 AUDIO
    TITLE "0:"
    INDEX 01 00:51:36
  TRACK 46 AUDIO
    TITLE "3:cjc157_2946"
    INDEX 01 00:52:06
  TRACK 47 AUDIO
    TITLE "0:"
    INDEX 01 00:53:23
  TRACK 48 AUDIO
    TITLE "4:cjc157_2947"
    INDEX 01 00:53:66
  TRACK 49 AUDIO
    TITLE "0:"
    INDEX 01 00:54:68
  TRACK 50 AUDIO
    TITLE "5:cjc157_2948"
    INDEX 01 00:55:34
  TRACK 51 AUDIO
    TITLE "0:"
    INDEX 01 00:57:25
  TRACK 52 AUDIO
    TITLE "5:cjc157_2949"
    INDEX 01 00:57:64
  TRACK 53 AUDIO
    TITLE "0:"
    INDEX 01 01:00:23
  TRACK 54 AUDIO
    TITLE "3:cjc157_2950"
    INDEX 01 01:00:72
  TRACK 55 AUDIO
    TITLE "0:"
    INDEX 01 01:01:74
  TRACK 56 AUDIO
    TITLE "4:cjc157_2951"
    INDEX 01 01:02:46
  TRACK 57 AUDIO
    TITLE "0:"
    INDEX 01 01:03:53
  TRACK 58 AUDIO
    TITLE "5:cjc157_2952"
    INDEX 01 01:04:23
  TRACK 59 AUDIO
    TITLE "0:"
    INDEX 01 01:05:73
  TRACK 60 AUDIO
    TITLE "5:cjc157_2953"
    INDEX 01 01:06:43
  TRACK 61 AUDIO
    TITLE "0:"
    INDEX 01 01:09:38
  TRACK 62 AUDIO
    TITLE "5:cjc157_2954"
    INDEX 01 01:10:10
  TRACK 63 AUDIO
    TITLE "0:"
    INDEX 01 01:12:60
  TRACK 64 AUDIO
    TITLE "3:cjc157_2955"
    INDEX 01 01:13:32
  TRACK 65 AUDIO
    TITLE "0:"
    INDEX 01 01:14:37
  TRACK 66 AUDIO
    TITLE "4:cjc157_2956"
    INDEX 01 01:15:05
  TRACK 67 AUDIO
    TITLE "0:"
    INDEX 01 01:16:18
  TRACK 68 AUDIO
    TITLE "5:cjc157_2957"
    INDEX 01 01:16:60
  TRACK 69 AUDIO
    TITLE "0:"
    INDEX 01 01:19:27
  TRACK 70 AUDIO
    TITLE "5:cjc157_2958"
    INDEX 01 01:19:68
  TRACK 71 AUDIO
    TITLE "0:"
    INDEX 01 01:21:47
  TRACK 72 AUDIO
    TITLE "5:cjc157_2959"
    INDEX 01 01:22:19
  TRACK 73 AUDIO
    TITLE "0:"
    INDEX 01 01:26:29
  TRACK 74 AUDIO
    TITLE "3:cjc157_2960"
    INDEX 01 01:26:74
  TRACK 75 AUDIO
    TITLE "0:"
    INDEX 01 01:28:10
  TRACK 76 AUDIO
    TITLE "4:cjc157_2961"
    INDEX 01 01:28:57
  TRACK 77 AUDIO
    TITLE "0:"
    INDEX 01 01:29:66
  TRACK 78 AUDIO
    TITLE "5:cjc157_2962"
    INDEX 01 01:30:38
  TRACK 79 AUDIO
    TITLE "0:"
    INDEX 01 01:32:49
  TRACK 80 AUDIO
    TITLE "5:cjc157_2963"
    INDEX 01 01:33:17
  TRACK 81 AUDIO
    TITLE "0:"
    INDEX 01 01:35:47
  TRACK 82 AUDIO
    TITLE "5:cjc157_2964"
    INDEX 01 01:36:21
  TRACK 83 AUDIO
    TITLE "0:"
    INDEX 01 01:37:69
  TRACK 84 AUDIO
    TITLE "3:cjc157_2965"
    INDEX 01 01:38:43
  TRACK 85 AUDIO
    TITLE "0:"
    INDEX 01 01:39:70
  TRACK 86 AUDIO
    TITLE "4:cjc157_2966"
    INDEX 01 01:40:40
  TRACK 87 AUDIO
    TITLE "0:"
    INDEX 01 01:41:52
  TRACK 88 AUDIO
    TITLE "5:cjc157_2967"
    INDEX 01 01:42:26
  TRACK 89 AUDIO
    TITLE "0:"
    INDEX 01 01:44:52
